/* XPM */ 
static const unsigned char * icon_xpm[] = {
"128 128 62 1",
" 	c None",
"!	c black",
"#	c #174A7D",
"$	c #0A3764",
"%	c #082D52",
"&	c #0B3B6B",
"'	c #082949",
"(	c #051A2F",
")	c #295A8B",
"*	c #06233F",
"+	c #2E5F90",
",	c #061F39",
"-	c #134679",
".	c #082D50",
"0	c #0B3967",
"1	c #072746",
"2	c #06223E",
"3	c #1B4E80",
"4	c #072543",
"5	c #06213B",
"6	c #0A345D",
"7	c #0C3D6E",
"8	c #235687",
"9	c #16497C",
":	c #08294B",
";	c #093057",
"<	c #104376",
"=	c #051E36",
">	c #1D5082",
"?	c #205284",
"@	c #124578",
"A	c #0A3662",
"B	c #061F38",
"C	c #072542",
"D	c #1A4D7F",
"E	c #7095B9",
"F	c #3D6C9A",
"G	c #C4D4E5",
"H	c #376796",
"I	c #0C3E70",
"J	c #4774A1",
"K	c #386897",
"L	c #547FA9",
"M	c #0E4174",
"N	c #2A5C8C",
"O	c #356595",
"P	c #3B6B99",
"Q	c #2B5D8E",
"R	c #0A335B",
"S	c #15487B",
"T	c #AEC4DA",
"U	c #97B3CF",
"V	c #8FADCA",
"W	c #0C3F72",
"X	c #0A3560",
"Y	c #14477A",
"Z	c #255788",
"[	c #4875A2",
"]	c #09325A",
"^	c #27598A",
"_	c #225586",
"`	c #0A355F",
"                                          #!$%%%#!#                                                                             ",
"                                      &'(((((((((((( )                                                                          ",
"                                  # *(((((((((((((((((*$ )                                                                      ",
"                                &*((((((((((((((((((((((((*                                                                     ",
"                             + ,(((((((((((((((((((((((((((((% -        -- ....0 -                                              ",
"                            &((((((((((((((((((((((((((((((((((((1-  .((((((((((((23                                            ",
"                          &,((((((((((((((((((((((((((((((((((((((((((((((((((((((((4                                           ",
"                        #(((((((((((((((56788888896:((((((((((((((((((((((((((((((((((8                                         ",
"                        ((((((((((((((:8888888888888876(((((((((((((((((((((((((((((((2                                         ",
"                     )%((((((((((((*7888888888888888888897;:(((((((((((((((*:::::5(((((0                                        ",
"                     ((((((((((((5<88888888888888888888888888((((((((((567888888885(((((                                        ",
"                   %(((((((((((=6888888888888888888888888888:((((((5:78888888888887((((((>                                      ",
"                 ?*((((((((((((98888888888888888888888888886(((((6988888888766566886(((((.                                      ",
"                 ((((((((((((:888888888888888777777@8888887((:A9888888887:((((((((;9:((((B                                      ",
"               '((((((((((((<88888888888886(((((((((C888885698888888886(((((((((((((:(((((                                      ",
"             #*(((((((((((5@888888888887*((((((((((A8888888888888887:=((((((((((((((((((((0                                     ",
"             ((((((((((((C8888888888886((((((((((588888888888888865(((((((((((((((((((((((                                      ",
"            ((((((((((((5888888888888<((((((((((C888888888888896((((((((((C66(((((((((((((0                                     ",
"          &((((((((((((5D888888888889(((((((((5@88888888897:*((((((((((=6D8889:(((((((((((0                                     ",
"         *(((((((((((((8888888888889((((((((((8888888887((((((((((((((C98889C(((((((((((((                                      ",
"        *(((((((((((((;888888888888;(((((((((5888888888D6:(((((((((((;888D:((((((((((((((((-                                    ",
"      32((((((((((((((9888888888888((((((((((6888888888888866C(C:((((78885((((((((((((((((((3                                   ",
"      (((((((((((((((5888888888888:((5A6(((((98888888A6D888888888((((D889((+EF(((((((((((((((7                                  ",
"    3((((((((((((((((<888<66<88888((C88<(((((888888889(5<888888886(((8886((E!(((((((6C((((((((1                                 ",
"   .((((((((((((((((=7;5(((788888D(;8888=(((:888888888:((5A8888888=((7889(($F((((F((;8:((((((((B0                               ",
"  2(((((((((((((((((((((((<88888888888886(((:88888888885(((C8888886((78886(((((((!F(588C(((((((((23                             ",
" 2((((((((((((((((((((((=988888888888888D5((:88888888887((((*9888885(*888D5(((((#!G((5889=(((((((((.                            ",
"2(((((((((((((((((((((((68888888888888888<((:888888665((((((((988888C(886887((((((((((68886(((((((((((-                         ",
"((((((((((((((((((((((((8888888888888888886((8886(((((((((((((5888888568C688<C(((((((((<8887(((((((((((18                       ",
"(((((((((((((((((((((((788888888888888888889:8888:((((((((((::79888888987(5D88@6:(((((((78889;(((((((((((*#                     ",
"((((((((((((((((((((((5888888888888888888888888888<5((((((6888888888888885((6<8888966C(((988888:((((((((((((6H                  ",
"(((((((((B((((((((((((;88888888888888888888888888@6=((((((=888888888888887((((=:78888888888888889;((((((((((((CIJ               ",
"(((((20!3(((((((((((((98888888888888888888888886(((((((((((68888:688888888<(((((((568888888888888886(((((((((((((4K             ",
"(. -8  7((((((((((((((8888888888888888888888@:((((((((((((((D888D5(:7D888887:5((((((=:D888888888888887:((((((((((((5 L          ",
"      1((((((((((((((6888888888888888888888C((((((((((((((((6888885((588888888888698888888888888888888886(((((((((((((@         ",
"     4(((((((((((((((688888888888888888889*((((*:::::=(((((((988887((((78888888888888888888888888888888888@:=(((((((((((M       ",
"   3(((((((((((((((((888888888888888888<:8669888888888888<66(688888<((((<8888888888888888888888888888888888886C(((((((((((N     ",
"  -((((((((((((((((((888888888888888889(:888888888888888888888888888<((((688888888888888888888888888888888888889C((((((((((K    ",
" 0(((((((((((((((((((88888888888888889=(@8888888888888888888888888888:((((688888888888888888888888888888888888888D6=((((((((    ",
"0((((((((((((((((C(((8888888888888888C(6888888888888888888888888889888C((((588888888888888888888888888888888888888886((((((((O  ",
"(((((((((((((((((6:((8888888888888887((88888888888888888888888888878889=((((5788888888888888888888888888888888888888875((((((4  ",
"(((((((((((((((((87((888888888888889(((888888888888888888888888886:88886((((((68888888888888888888888888888888888888888(((((((  ",
"((((((((((((((:5(8D((88888888888888A((:888888888888888888888888886:8888D(((((((5D8888888888888888888888888888888888888:(((((((  ",
"((((((((((((((6<:88C(<8888888888888:((:88888888888888888888888888(:88888(((((((((<888888888888888888888888888888888889((((((((  ",
"((((((2(((((((687889=68888888888888=((:88888888888888888888888888(*88888((((((((((;8888888888888888888888888888888888=((((((((P ",
"(((0!8((((((((688888668888888888888(((:88888888888888888888888889((88887((((((((((((98888888888888888888888888888888C(((((((((  ",
"1 Q!0B((((((((688888868888888888888((((88888888888888888888888887((7888;(((((((((((((688888888888888888888888888888A((((((((((N ",
"   '((((((((((688888888888888888888((((<8888888888888888888888887(((<885((((((((((((((58888888888888888888888888888:((((((((((  ",
"  &(((((((((((688888888888888888888((((68888888888888888888888887(((C8<(((((((((((((((((<888888888888888888888888887((((((((((N ",
" &(((((((((((((88888888888888888888(((((D888888888888888888888887((((@5((((((((((((((((((:9888888888888888888888888@(((6D5((((  ",
"%((((((((((((((88888888888888888888(((((:888888888888888888888887((((((((((((((((((((((((((7888888888888888888888888C((<86((((6 ",
"(((((((((((((((68888888888888888888((((((988888888888888888888888(((((((((((((((((((((((((((:D88888888888888888888888=(888((((R ",
"((((((((((((((((8888888888888888888(((((((88888888888888888888888C((((((((((((((((((((((((((((688888888888888888888889(<88((((C ",
"(((((%&(((((((((D888888888888888887(((((((;88888888888888888888887(((((((((((((((((((((((((((((*78888888888888888888886688*(((( ",
"(((&  '(((((((((7888888888888888886((((((((<8888888888888888888888(((((((((((((((((((((((%&((((((5<88888888888888888888888:(((( ",
",&+  %((((((((((:888888888888888885(((((((((D888888888888888888888A((((((((::((((((((((((+!G(((((((5A888888888888888888888*((((S",
"    '((((((((((((<8888888888888888((((((((((58888888888888888888888((((((((:8C(((((((((((E!%((((((((((:<888888888888888888(((((!",
"    (((((((((((((C8888888888888888(((((((((((<888888888888888888888<(((((((:885((((((((((F&(((((((((((((568888888888888888(((((S",
"  #(((((((((((((((@888888888888888((((;7*(((((78888888888888888888889=(((((=88D5(((((((((((((((!T(((((((((((:6779888888889((((( ",
"  ((((((((((((((((:888888888888888C(((58886C(((98888888888888888888889((((((68886((((((((((((((!&((F%((((((((((((((5698886((((6 ",
" *(((((((((((((((((9888888888888889((((78888D76A8@888888888888888888889:(((((68887*((((((((((((#(((!G((((((((((((((((((5:(((((  ",
"%((((((((((((((((((C8888888888888886(((C888888888:C888888888888888888888<5((((68888<5((((((((((((((!#((FF((((((((((((((((((((.  ",
"(((((((((,((((((((((A888888888888888:(((788888888A(:888888888888888888888D7:::(6888887:((((((((((((#(((!U(((EF(((((((((((((((Q  ",
"(((((((*?)(((((((((((8888888888888888C((5888888887((C8888888888888888888888888888888888865(((((((((((((!#(((!V((F!F(((((((((C   ",
"(((((1#  ,(((((((((((58888888888888888:((588888888:((:8888888888888888888888888888888888889;5(((((((((1#((((G(((FG%((E!%((((W   ",
"((((?   '(((((((((((((688888888888888886((688888888(((C98888888888888888888888888888888888888865((((((((((((F(((&((((EV(((((    ",
"(*W    W((((((((((((((=988888888888888887(=98888888A(((=788888888888888888888888888887;88888888897:5(((((((((((((((((E(((((C    ",
"&      ((((((((((((((((C88888888888888888<5(88888888C((((C98888888888888888888888896(((C88888888888886:((((((((((((((((((((     ",
"      '(((((((((((((((((8888888888888888889(88888888<((((((688888888888888888886:(((((((C9888888888888886((((((((((((((((((     ",
"      ((((((((((((((((((78888888888888888889D88888888A((((((=6D888888888976::(((((((((((((:@88888888888888:(((((((((((((((X     ",
"     (((((((((((((((((((888888888888888888888888888888C((((((((C6<8886C(((((((((((((((((((((C788888888888886((((((((((((((S     ",
"    *((((1*((((((((((((58888888888888888888888888888888=(((((((((((55((((((((((((((((((((((((((:7D88888888@5((((((((((((5S      ",
"   '((((?)(((((((((((((<88888888888888888888888888888887((((((((((((((((((((((((((((((((((((((((((C688887C((((((((.             ",
"  W(((%+!1((((((((((((*8888888888888888888888888888888886((((((((((((((((((((((((((((((((((((((((((((:*((((((((((D              ",
"  (((&  &(((((((((((((788888888888888888888888888888888888:(((((((((((((((((((((( Y9Y $((((((((((((((((((((((((*                ",
" &(*#   (((((((((((((588888888888888888888888888888888888889A5((((((((((((((((1Z         ) X(((((((((((((((((4@                 ",
" '*    &(((((((((((((6888888888888888888888888888888888888888<(((((((((((((('N               [YC((((((((((((S                   ",
" '     ((((('!(((((((<888888888888888888888888888888888888886((((((((((((((]                     @:(((((((4F                    ",
"      #((,&!&,(((((((8888888888888888888888888888888888888@5(((((((((((((XQ                          NNQN^                      ",
"      '(&  &(((((((((888888888888888888888888888888888888<((((((((((((((3                                                       ",
"      *_  &((((((((((78777777@8888888888888888888888888D5(((((((((((((.)                                                        ",
"         &(((((((((((((((((((78888888888888888888888888:(((((((((((((0                                                          ",
"         _ #*((((((((((((((=988888888888888888888888887(((((*6((((((2                                                           ",
"           %((((((((((((((6888888888888888888888888888((((688<(((((1                                                            ",
"         W*(((((((((((((;98888888888888888888888888887(=7888D(((((B                                                             ",
"       )((((((((((((((:888888888888888888888888988888:C98888:(((((0                                                             ",
"      &(((((((((((((5<88888888888888888888888889(98887888888((((((8                                                             ",
"    #1((((((((((((*78888889D88888888888888888888:(6D88888889(((((.                                                              ",
"  )(((((((((((((5<888886:(6888888888888888888888<((5<8888886(((((0                                                              ",
"+&(((((((((((((6D8@7:5((;888888888888888888888888*(((;988886(((((                                                               ",
"*(((((((((((((((((((((5<88888888888888888888888889(((((:888C((((.                                                               ",
"     W*(((((((((((((=688888888888888888888888888886((((((:8(((((7                                                               ",
"  )'(((((((((((((((C88888888888888888888888888888885((((((:(((((                                                                ",
"W*(((((((((((((((5788888888888888888888888888888888D5(((((((((((                                                                ",
"((((((((((((((((688888888888888888888888888888888888<(((((((((((                                                                ",
"((((((((((((((:98888888888888888888888888888886D888887(((((((((0                                                                ",
"(((((((((((((788888888888888888888888888888888<5<88888<((((((((0                                                                ",
"((((((((((((((((((5<8888888888888888888888888885(9888887(((((((                                                                 ",
"((((((((((((((((=6D8888888888888888888888888888A((6D88885((((((                                                                 ",
"(((((((((((((((688888888888888888888888888888888C((5<887((((((.                                                                 ",
"((((((((((((5A88888888888888888888888888888888889((((:9*((((((`                                                                 ",
"(((((((((((78888888888888888888888888888888888888:((((((((((((-                                                                 ",
"(((((((((:888888888888888888888888888888888888888@((((((((((((                                                                  ",
"((((((((686665<88888888888888888888888888<688888886((((((((((0                                                                  ",
"((((((((((((5@8888888888888888888888888888*5D888888:(((((((((8                                                                  ",
"(((((((((((:8888888888888888888888888888887(5<888888(((((((((                                                                   ",
"((((((((((C88888888888888888888888888888888(((<88888<((((((((0                                                                  ",
"(((((((((78888888888888888888888888888888887(((*98888;(((((((2                                                                  ",
"(((((((5<888888888888888888888888888888888885((((68888C(((((((                                                                  ",
"((((((:D888888888888888888888888888888888888A(((((57888*((((((-                                                                 ",
"(((((6888888888888888888888888888888888888888C((((((C987((((((                                                                  ",
"(((5988888888888888888888888888888888888888889(((((((=6@((((((`                                                                 ",
"(((6888888888888888888888888888888888888888888<((((((((5((((((.                                                                 ",
"(((98888888888888888888888888888888888798888888*((((((((((((((4                                                                 ",
"(((888888888888888888888888888888888886(98888889(((((((((((((((                                                                 ",
"((=88888888888888888888888888888888888D(=68888887((((((((((((((                                                                 ",
"((:8888888888888888888888888888888888886((6888888:(((((((((((((3                                                                ",
"((78888888888888888888888888888888888888(((C888889(((((((((((((0                                                                ",
"(688888888888888888888888888888888888888;(((*98888:((((((((((((0                                                                ",
"68888888888888888888888888888888888888888(((((C886((((((((((((((                                                                ",
"888888888888888888888888888888888888888887(((((=7=((((((((((((((                                                                ",
"888888888888888888888888888888888888888888:(((((((((((((((((((((                                                                ",
"887888888888888888888888888888888888888888@(((((((((((((((((((((                                                                ",
"9(68888888888888888888888888888888888888888C(((((((((5<8<(((((((                                                                ",
"=5888888888888888888888888888888888888888888=((((((((D8889((((((                                                                ",
"(88888888888888888888888888888888888888888889((((((((88888:(((((                                                                ",
"688888888888888888888888888788888888888878888C(((((((88888:(((((&                                                               ",
"                                                                                                                                "};